<svg width="224" height="224" viewBox="0 0 224 224" fill="none" xmlns="http://www.w3.org/2000/svg">
<path d="M61.9055 24.5078C61.8459 23.9496 61.5945 23.5149 61.1513 23.2038C60.7124 22.8928 60.1413 22.7372 59.4382 22.7372C58.9439 22.7372 58.5199 22.8118 58.1662 22.9609C57.8125 23.1101 57.5419 23.3125 57.3544 23.5682C57.1669 23.8239 57.071 24.1158 57.0668 24.4439C57.0668 24.7166 57.1286 24.9531 57.2521 25.1534C57.38 25.3537 57.5526 25.5241 57.7699 25.6648C57.9872 25.8011 58.228 25.9162 58.4922 26.0099C58.7564 26.1037 59.0227 26.1825 59.2912 26.2464L60.5185 26.5533C61.0128 26.6683 61.4879 26.8239 61.9439 27.0199C62.4041 27.2159 62.8153 27.4631 63.1776 27.7614C63.544 28.0597 63.8338 28.4197 64.0469 28.8416C64.2599 29.2635 64.3665 29.7578 64.3665 30.3246C64.3665 31.0916 64.1705 31.767 63.7784 32.3509C63.3864 32.9304 62.8196 33.3842 62.0781 33.7124C61.3409 34.0362 60.4482 34.1982 59.3999 34.1982C58.3814 34.1982 57.4972 34.0405 56.7472 33.7251C56.0014 33.4098 55.4176 32.9496 54.9957 32.3445C54.5781 31.7393 54.3523 31.0021 54.3182 30.1328H56.6513C56.6854 30.5888 56.826 30.968 57.0732 31.2706C57.3203 31.5732 57.642 31.799 58.0384 31.9482C58.4389 32.0973 58.8864 32.1719 59.3807 32.1719C59.8963 32.1719 60.348 32.0952 60.7358 31.9418C61.1278 31.7841 61.4347 31.5668 61.6562 31.2898C61.8778 31.0085 61.9908 30.6804 61.995 30.3054C61.9908 29.9645 61.8906 29.6832 61.6946 29.4616C61.4986 29.2358 61.2237 29.0483 60.87 28.8991C60.5206 28.7457 60.1115 28.6094 59.6428 28.4901L58.1534 28.1065C57.0753 27.8295 56.223 27.4098 55.5966 26.8473C54.9744 26.2805 54.6634 25.5284 54.6634 24.5909C54.6634 23.8196 54.8722 23.1442 55.2898 22.5646C55.7116 21.9851 56.2848 21.5355 57.0092 21.2159C57.7337 20.892 58.554 20.7301 59.4702 20.7301C60.3991 20.7301 61.2131 20.892 61.9119 21.2159C62.6151 21.5355 63.1669 21.9808 63.5675 22.5518C63.968 23.1186 64.1747 23.7706 64.1875 24.5078H61.9055ZM70.661 34.1918C69.6809 34.1918 68.8393 33.9766 68.1362 33.5462C67.4373 33.1158 66.8983 32.5213 66.519 31.7628C66.144 31 65.9565 30.1222 65.9565 29.1293C65.9565 28.1321 66.1483 27.2521 66.5318 26.4893C66.9153 25.7223 67.4565 25.1257 68.1554 24.6996C68.8585 24.2692 69.6895 24.054 70.6483 24.054C71.4451 24.054 72.1504 24.201 72.764 24.495C73.3819 24.7848 73.8741 25.196 74.2406 25.7287C74.6071 26.2571 74.8159 26.875 74.867 27.5824H72.6554C72.5659 27.1094 72.3528 26.7152 72.0162 26.3999C71.6838 26.0803 71.2385 25.9205 70.6802 25.9205C70.2072 25.9205 69.7917 26.0483 69.4338 26.304C69.0758 26.5554 68.7967 26.9176 68.5964 27.3906C68.4004 27.8636 68.3024 28.4304 68.3024 29.0909C68.3024 29.7599 68.4004 30.3352 68.5964 30.8168C68.7924 31.294 69.0673 31.6626 69.421 31.9226C69.7789 32.1783 70.1987 32.3061 70.6802 32.3061C71.0211 32.3061 71.3258 32.2422 71.5943 32.1143C71.867 31.9822 72.095 31.7926 72.2782 31.5455C72.4615 31.2983 72.5872 30.9979 72.6554 30.6442H74.867C74.8116 31.3388 74.6071 31.9545 74.2534 32.4915C73.8997 33.0241 73.4181 33.4418 72.8088 33.7443C72.1994 34.0426 71.4835 34.1918 70.661 34.1918ZM79.5923 34.1982C78.9702 34.1982 78.4098 34.0874 77.9112 33.8658C77.4169 33.6399 77.0249 33.3075 76.7351 32.8686C76.4496 32.4297 76.3068 31.8885 76.3068 31.245C76.3068 30.6911 76.4091 30.233 76.6136 29.8707C76.8182 29.5085 77.0973 29.2188 77.451 29.0014C77.8047 28.7841 78.2031 28.62 78.6463 28.5092C79.0938 28.3942 79.5561 28.3111 80.0334 28.2599C80.6087 28.2003 81.0753 28.147 81.4332 28.1001C81.7912 28.049 82.0511 27.9723 82.2131 27.87C82.3793 27.7635 82.4624 27.5994 82.4624 27.3778V27.3395C82.4624 26.858 82.3196 26.4851 82.0341 26.2209C81.7486 25.9567 81.3374 25.8246 80.8004 25.8246C80.2337 25.8246 79.7841 25.9482 79.4517 26.1953C79.1236 26.4425 78.902 26.7344 78.7869 27.071L76.6264 26.7642C76.7969 26.1676 77.0781 25.669 77.4702 25.2685C77.8622 24.8636 78.3416 24.5611 78.9084 24.3608C79.4751 24.1562 80.1016 24.054 80.7876 24.054C81.2607 24.054 81.7315 24.1094 82.2003 24.2202C82.669 24.331 83.0973 24.5142 83.4851 24.7699C83.8729 25.0213 84.1839 25.3643 84.4183 25.799C84.657 26.2337 84.7763 26.777 84.7763 27.429V34H82.5518V32.6513H82.4751C82.3345 32.924 82.1364 33.1797 81.8807 33.4183C81.6293 33.6527 81.3118 33.8423 80.9283 33.9872C80.549 34.1278 80.1037 34.1982 79.5923 34.1982ZM80.1932 32.4979C80.6577 32.4979 81.0604 32.4062 81.4013 32.223C81.7422 32.0355 82.0043 31.7884 82.1875 31.4815C82.375 31.1747 82.4688 30.8402 82.4688 30.478V29.321C82.3963 29.3807 82.2727 29.4361 82.098 29.4872C81.9276 29.5384 81.7358 29.5831 81.5227 29.6214C81.3097 29.6598 81.0987 29.6939 80.8899 29.7237C80.6811 29.7536 80.5 29.7791 80.3466 29.8004C80.0014 29.8473 79.6925 29.924 79.4197 30.0305C79.147 30.1371 78.9318 30.2862 78.7741 30.478C78.6165 30.6655 78.5376 30.9084 78.5376 31.2067C78.5376 31.6328 78.6932 31.9545 79.0043 32.1719C79.3153 32.3892 79.7116 32.4979 80.1932 32.4979ZM89.4169 28.2472V34H87.103V24.1818H89.3146V25.8501H89.4297C89.6555 25.3004 90.0156 24.8636 90.5099 24.5398C91.0085 24.2159 91.6243 24.054 92.3572 24.054C93.0348 24.054 93.625 24.1989 94.1278 24.4886C94.6349 24.7784 95.027 25.1982 95.304 25.7479C95.5852 26.2976 95.7237 26.9645 95.7195 27.7486V34H93.4055V28.1065C93.4055 27.4503 93.2351 26.9368 92.8942 26.5661C92.5575 26.1953 92.0909 26.0099 91.4943 26.0099C91.0895 26.0099 90.7294 26.0994 90.4141 26.2784C90.103 26.4531 89.858 26.7067 89.679 27.0391C89.5043 27.3714 89.4169 27.7741 89.4169 28.2472ZM107.439 24.1818V25.9716H101.795V24.1818H107.439ZM103.189 21.8295H105.502V31.0469C105.502 31.358 105.549 31.5966 105.643 31.7628C105.741 31.9247 105.869 32.0355 106.027 32.0952C106.184 32.1548 106.359 32.1847 106.551 32.1847C106.696 32.1847 106.828 32.174 106.947 32.1527C107.071 32.1314 107.164 32.1122 107.228 32.0952L107.618 33.9041C107.495 33.9467 107.318 33.9936 107.088 34.0447C106.862 34.0959 106.585 34.1257 106.257 34.1342C105.677 34.1513 105.155 34.0639 104.691 33.8722C104.226 33.6761 103.858 33.3736 103.585 32.9645C103.316 32.5554 103.184 32.044 103.189 31.4304V21.8295ZM113.552 34.1918C112.593 34.1918 111.762 33.9808 111.059 33.5589C110.356 33.1371 109.81 32.5469 109.422 31.7884C109.039 31.0298 108.847 30.1435 108.847 29.1293C108.847 28.1151 109.039 27.2266 109.422 26.4638C109.81 25.701 110.356 25.1087 111.059 24.6868C111.762 24.2649 112.593 24.054 113.552 24.054C114.51 24.054 115.341 24.2649 116.045 24.6868C116.748 25.1087 117.291 25.701 117.675 26.4638C118.062 27.2266 118.256 28.1151 118.256 29.1293C118.256 30.1435 118.062 31.0298 117.675 31.7884C117.291 32.5469 116.748 33.1371 116.045 33.5589C115.341 33.9808 114.51 34.1918 113.552 34.1918ZM113.564 32.3381C114.084 32.3381 114.519 32.1953 114.868 31.9098C115.218 31.62 115.478 31.2322 115.648 30.7464C115.823 30.2607 115.91 29.7195 115.91 29.1229C115.91 28.522 115.823 27.9787 115.648 27.4929C115.478 27.0028 115.218 26.6129 114.868 26.3232C114.519 26.0334 114.084 25.8885 113.564 25.8885C113.032 25.8885 112.589 26.0334 112.235 26.3232C111.885 26.6129 111.623 27.0028 111.449 27.4929C111.278 27.9787 111.193 28.522 111.193 29.1229C111.193 29.7195 111.278 30.2607 111.449 30.7464C111.623 31.2322 111.885 31.62 112.235 31.9098C112.589 32.1953 113.032 32.3381 113.564 32.3381ZM124.787 34V20.9091H133.301V22.897H127.159V26.451H132.86V28.4389H127.159V32.0121H133.353V34H124.787ZM137.933 28.2472V34H135.619V24.1818H137.83V25.8501H137.945C138.171 25.3004 138.531 24.8636 139.026 24.5398C139.524 24.2159 140.14 24.054 140.873 24.054C141.55 24.054 142.141 24.1989 142.643 24.4886C143.151 24.7784 143.543 25.1982 143.82 25.7479C144.101 26.2976 144.239 26.9645 144.235 27.7486V34H141.921V28.1065C141.921 27.4503 141.751 26.9368 141.41 26.5661C141.073 26.1953 140.607 26.0099 140.01 26.0099C139.605 26.0099 139.245 26.0994 138.93 26.2784C138.619 26.4531 138.374 26.7067 138.195 27.0391C138.02 27.3714 137.933 27.7741 137.933 28.2472ZM151.49 24.1818V25.9716H145.846V24.1818H151.49ZM147.239 21.8295H149.553V31.0469C149.553 31.358 149.6 31.5966 149.694 31.7628C149.792 31.9247 149.92 32.0355 150.077 32.0952C150.235 32.1548 150.41 32.1847 150.602 32.1847C150.746 32.1847 150.879 32.174 150.998 32.1527C151.121 32.1314 151.215 32.1122 151.279 32.0952L151.669 33.9041C151.545 33.9467 151.369 33.9936 151.138 34.0447C150.913 34.0959 150.636 34.1257 150.308 34.1342C149.728 34.1513 149.206 34.0639 148.741 33.8722C148.277 33.6761 147.908 33.3736 147.636 32.9645C147.367 32.5554 147.235 32.044 147.239 31.4304V21.8295ZM157.666 34.1918C156.682 34.1918 155.832 33.9872 155.116 33.5781C154.404 33.1648 153.857 32.581 153.473 31.8267C153.09 31.0682 152.898 30.1754 152.898 29.1484C152.898 28.1385 153.09 27.2521 153.473 26.4893C153.861 25.7223 154.402 25.1257 155.097 24.6996C155.791 24.2692 156.607 24.054 157.545 24.054C158.15 24.054 158.721 24.152 159.258 24.348C159.799 24.5398 160.276 24.8381 160.69 25.2429C161.107 25.6477 161.436 26.1634 161.674 26.7898C161.913 27.4119 162.032 28.1534 162.032 29.0142V29.7237H153.985V28.1641H159.814C159.81 27.7209 159.714 27.3267 159.526 26.9815C159.339 26.6321 159.077 26.3572 158.74 26.157C158.408 25.9567 158.02 25.8565 157.577 25.8565C157.104 25.8565 156.688 25.9716 156.33 26.2017C155.972 26.4276 155.693 26.7259 155.493 27.0966C155.297 27.4631 155.197 27.8658 155.193 28.3047V29.6662C155.193 30.2372 155.297 30.7273 155.506 31.1364C155.715 31.5412 156.007 31.8523 156.382 32.0696C156.757 32.2827 157.195 32.3892 157.698 32.3892C158.035 32.3892 158.34 32.3423 158.612 32.2486C158.885 32.1506 159.122 32.0078 159.322 31.8203C159.522 31.6328 159.673 31.4006 159.776 31.1236L161.936 31.3665C161.8 31.9375 161.54 32.4361 161.156 32.8622C160.777 33.2841 160.291 33.6122 159.699 33.8466C159.107 34.0767 158.429 34.1918 157.666 34.1918ZM163.99 34V24.1818H166.233V25.8182H166.336C166.515 25.2514 166.821 24.8146 167.256 24.5078C167.695 24.1967 168.196 24.0412 168.758 24.0412C168.886 24.0412 169.029 24.0476 169.186 24.0604C169.348 24.0689 169.483 24.0838 169.589 24.1051V26.2337C169.491 26.1996 169.336 26.1697 169.123 26.1442C168.914 26.1143 168.711 26.0994 168.515 26.0994C168.093 26.0994 167.714 26.1911 167.377 26.3743C167.045 26.5533 166.783 26.8026 166.591 27.1222C166.4 27.4418 166.304 27.8104 166.304 28.228V34H163.99Z" fill="#1E1E20"/>
<path d="M22.9919 64.0406H20V133.959H22.9919V64.0406Z" fill="#1E1E20"/>
<path d="M25.9832 64.0406H24.4873V133.959H25.9832V64.0406Z" fill="#1E1E20"/>
<path d="M30.4715 64.0406H28.9756V133.959H30.4715V64.0406Z" fill="#1E1E20"/>
<path d="M37.951 64.0406H36.4551V133.959H37.951V64.0406Z" fill="#1E1E20"/>
<path d="M45.4313 64.0406H42.4395V133.959H45.4313V64.0406Z" fill="#1E1E20"/>
<path d="M51.4149 64.0406H49.9189V133.959H51.4149V64.0406Z" fill="#1E1E20"/>
<path d="M54.4061 64.0406H52.9102V133.959H54.4061V64.0406Z" fill="#1E1E20"/>
<path d="M58.8942 64.0406H55.9023V133.959H58.8942V64.0406Z" fill="#1E1E20"/>
<path d="M63.3817 64.0406H61.8857V133.959H63.3817V64.0406Z" fill="#1E1E20"/>
<path d="M70.8621 64.0406H69.3662V133.959H70.8621V64.0406Z" fill="#1E1E20"/>
<path d="M78.3421 64.0406H72.3584V133.959H78.3421V64.0406Z" fill="#1E1E20"/>
<path d="M82.8289 64.0406H81.333V133.959H82.8289V64.0406Z" fill="#1E1E20"/>
<path d="M87.3172 64.0406H85.8213V133.959H87.3172V64.0406Z" fill="#1E1E20"/>
<path d="M96.2923 64.0406H90.3086V133.959H96.2923V64.0406Z" fill="#1E1E20"/>
<path d="M99.284 64.0406H97.7881V133.959H99.284V64.0406Z" fill="#1E1E20"/>
<path d="M103.772 64.0406H102.276V133.959H103.772V64.0406Z" fill="#1E1E20"/>
<path d="M112.748 64.0406H109.756V133.959H112.748V64.0406Z" fill="#1E1E20"/>
<path d="M115.74 64.0406H114.244V133.959H115.74V64.0406Z" fill="#1E1E20"/>
<path d="M124.715 64.0406H118.731V133.959H124.715V64.0406Z" fill="#1E1E20"/>
<path d="M127.708 64.0406H126.212V133.959H127.708V64.0406Z" fill="#1E1E20"/>
<path d="M132.195 64.0406H130.699V133.959H132.195V64.0406Z" fill="#1E1E20"/>
<path d="M136.682 64.0406H135.187V133.959H136.682V64.0406Z" fill="#1E1E20"/>
<path d="M141.171 64.0406H139.675V133.959H141.171V64.0406Z" fill="#1E1E20"/>
<path d="M145.659 64.0406H142.667V133.959H145.659V64.0406Z" fill="#1E1E20"/>
<path d="M154.633 64.0406H151.642V133.959H154.633V64.0406Z" fill="#1E1E20"/>
<path d="M159.122 64.0406H157.626V133.959H159.122V64.0406Z" fill="#1E1E20"/>
<path d="M162.114 64.0406H160.618V133.959H162.114V64.0406Z" fill="#1E1E20"/>
<path d="M172.585 64.0406H168.098V133.959H172.585V64.0406Z" fill="#1E1E20"/>
<path d="M178.569 64.0406H175.577V133.959H178.569V64.0406Z" fill="#1E1E20"/>
<path d="M181.56 64.0406H180.064V133.959H181.56V64.0406Z" fill="#1E1E20"/>
<path d="M187.545 64.0406H184.553V133.959H187.545V64.0406Z" fill="#1E1E20"/>
<path d="M196.52 64.0406H192.032V133.959H196.52V64.0406Z" fill="#1E1E20"/>
<path d="M199.513 64.0406H198.017V133.959H199.513V64.0406Z" fill="#1E1E20"/>
<path d="M204 64.0406H201.008V133.959H204V64.0406Z" fill="#1E1E20"/>
<path d="M29.7807 164.21V163.273H36.3262V164.21H33.5819V172H32.525V164.21H29.7807ZM38.8265 168.062V172H37.8208V163.273H38.8265V166.477H38.9118C39.0652 166.139 39.2953 165.871 39.6021 165.672C39.9118 165.47 40.3237 165.369 40.8379 165.369C41.2839 165.369 41.6745 165.459 42.0098 165.638C42.345 165.814 42.6049 166.085 42.7896 166.452C42.9771 166.815 43.0708 167.278 43.0708 167.841V172H42.0652V167.909C42.0652 167.389 41.9302 166.987 41.6603 166.703C41.3933 166.416 41.0225 166.273 40.5481 166.273C40.2186 166.273 39.9231 166.342 39.6618 166.482C39.4032 166.621 39.1987 166.824 39.0481 167.091C38.9004 167.358 38.8265 167.682 38.8265 168.062ZM46.8368 172.153C46.4221 172.153 46.0456 172.075 45.7076 171.919C45.3695 171.76 45.101 171.531 44.9022 171.233C44.7033 170.932 44.6039 170.568 44.6039 170.142C44.6039 169.767 44.6777 169.463 44.8255 169.23C44.9732 168.994 45.1706 168.81 45.4178 168.676C45.665 168.543 45.9377 168.443 46.236 168.378C46.5371 168.31 46.8397 168.256 47.1436 168.216C47.5414 168.165 47.8638 168.126 48.111 168.101C48.361 168.072 48.5428 168.026 48.6564 167.96C48.7729 167.895 48.8311 167.781 48.8311 167.619V167.585C48.8311 167.165 48.7161 166.838 48.486 166.605C48.2587 166.372 47.9135 166.256 47.4505 166.256C46.9703 166.256 46.5939 166.361 46.3212 166.571C46.0485 166.781 45.8567 167.006 45.7459 167.244L44.7914 166.903C44.9618 166.506 45.1891 166.196 45.4732 165.974C45.7601 165.75 46.0726 165.594 46.4107 165.506C46.7516 165.415 47.0868 165.369 47.4164 165.369C47.6266 165.369 47.8681 165.395 48.1408 165.446C48.4164 165.494 48.682 165.595 48.9377 165.749C49.1962 165.902 49.4107 166.134 49.5811 166.443C49.7516 166.753 49.8368 167.168 49.8368 167.688V172H48.8311V171.114H48.78C48.7118 171.256 48.5982 171.408 48.4391 171.57C48.28 171.732 48.0684 171.869 47.8042 171.983C47.54 172.097 47.2175 172.153 46.8368 172.153ZM46.9902 171.25C47.388 171.25 47.7232 171.172 47.9959 171.016C48.2715 170.859 48.4789 170.658 48.6181 170.411C48.7601 170.163 48.8311 169.903 48.8311 169.631V168.71C48.7885 168.761 48.6948 168.808 48.5499 168.851C48.4078 168.891 48.2431 168.926 48.0556 168.957C47.8709 168.986 47.6905 169.011 47.5144 169.034C47.3411 169.054 47.2005 169.071 47.0925 169.085C46.8311 169.119 46.5868 169.175 46.3596 169.251C46.1351 169.325 45.9533 169.437 45.8141 169.588C45.6777 169.736 45.6096 169.937 45.6096 170.193C45.6096 170.543 45.7388 170.807 45.9973 170.986C46.2587 171.162 46.5897 171.25 46.9902 171.25ZM52.6781 168.062V172H51.6724V165.455H52.644V166.477H52.7292C52.8826 166.145 53.1156 165.878 53.4281 165.676C53.7406 165.472 54.144 165.369 54.6383 165.369C55.0815 165.369 55.4693 165.46 55.8017 165.642C56.1341 165.821 56.3926 166.094 56.5772 166.46C56.7619 166.824 56.8542 167.284 56.8542 167.841V172H55.8485V167.909C55.8485 167.395 55.715 166.994 55.448 166.707C55.1809 166.418 54.8145 166.273 54.3485 166.273C54.0275 166.273 53.7406 166.342 53.4877 166.482C53.2377 166.621 53.0403 166.824 52.8954 167.091C52.7505 167.358 52.6781 167.682 52.6781 168.062ZM59.6294 169.614L59.6124 168.369H59.8169L62.6806 165.455H63.9249L60.8738 168.54H60.7885L59.6294 169.614ZM58.6919 172V163.273H59.6976V172H58.6919ZM62.851 172L60.2942 168.761L61.0101 168.062L64.1294 172H62.851ZM69.242 174.455C69.0716 174.455 68.9196 174.44 68.786 174.412C68.6525 174.386 68.5602 174.361 68.5091 174.335L68.7647 173.449C69.0091 173.511 69.225 173.534 69.4125 173.517C69.6 173.5 69.7662 173.416 69.911 173.266C70.0588 173.118 70.1937 172.878 70.3159 172.545L70.5034 172.034L68.0829 165.455H69.1738L70.9806 170.67H71.0488L72.8556 165.455H73.9466L71.1681 172.955C71.0431 173.293 70.8883 173.572 70.7037 173.794C70.519 174.018 70.3045 174.185 70.0602 174.293C69.8187 174.401 69.546 174.455 69.242 174.455ZM77.6987 172.136C77.1078 172.136 76.5893 171.996 76.1433 171.714C75.7001 171.433 75.3535 171.04 75.1035 170.534C74.8564 170.028 74.7328 169.437 74.7328 168.761C74.7328 168.08 74.8564 167.484 75.1035 166.976C75.3535 166.467 75.7001 166.072 76.1433 165.791C76.5893 165.51 77.1078 165.369 77.6987 165.369C78.2896 165.369 78.8066 165.51 79.2498 165.791C79.6958 166.072 80.0424 166.467 80.2896 166.976C80.5396 167.484 80.6646 168.08 80.6646 168.761C80.6646 169.437 80.5396 170.028 80.2896 170.534C80.0424 171.04 79.6958 171.433 79.2498 171.714C78.8066 171.996 78.2896 172.136 77.6987 172.136ZM77.6987 171.233C78.1475 171.233 78.5169 171.118 78.8066 170.888C79.0964 170.658 79.3109 170.355 79.4501 169.98C79.5893 169.605 79.6589 169.199 79.6589 168.761C79.6589 168.324 79.5893 167.916 79.4501 167.538C79.3109 167.161 79.0964 166.855 78.8066 166.622C78.5169 166.389 78.1475 166.273 77.6987 166.273C77.2498 166.273 76.8805 166.389 76.5907 166.622C76.301 166.855 76.0865 167.161 75.9473 167.538C75.8081 167.916 75.7385 168.324 75.7385 168.761C75.7385 169.199 75.8081 169.605 75.9473 169.98C76.0865 170.355 76.301 170.658 76.5907 170.888C76.8805 171.118 77.2498 171.233 77.6987 171.233ZM86.3248 169.324V165.455H87.3304V172H86.3248V170.892H86.2566C86.1032 171.224 85.8645 171.507 85.5407 171.74C85.2168 171.97 84.8077 172.085 84.3134 172.085C83.9043 172.085 83.5407 171.996 83.2225 171.817C82.9043 171.635 82.6543 171.362 82.4725 170.999C82.2907 170.632 82.1998 170.17 82.1998 169.614V165.455H83.2054V169.545C83.2054 170.023 83.339 170.403 83.606 170.688C83.8759 170.972 84.2196 171.114 84.6373 171.114C84.8873 171.114 85.1415 171.05 85.4 170.922C85.6614 170.794 85.8801 170.598 86.0563 170.334C86.2353 170.07 86.3248 169.733 86.3248 169.324ZM95.4622 165.455V166.307H91.9338V165.455H95.4622ZM92.9906 172V164.551C92.9906 164.176 93.0787 163.864 93.2548 163.614C93.4309 163.364 93.6596 163.176 93.9409 163.051C94.2221 162.926 94.519 162.864 94.8315 162.864C95.0787 162.864 95.2804 162.884 95.4366 162.923C95.5929 162.963 95.7093 163 95.786 163.034L95.4963 163.903C95.4451 163.886 95.3741 163.865 95.2832 163.839C95.1951 163.814 95.0787 163.801 94.9338 163.801C94.6014 163.801 94.3613 163.885 94.2136 164.053C94.0687 164.22 93.9963 164.466 93.9963 164.79V172H92.9906ZM99.2612 172.136C98.6703 172.136 98.1518 171.996 97.7058 171.714C97.2626 171.433 96.916 171.04 96.666 170.534C96.4189 170.028 96.2953 169.437 96.2953 168.761C96.2953 168.08 96.4189 167.484 96.666 166.976C96.916 166.467 97.2626 166.072 97.7058 165.791C98.1518 165.51 98.6703 165.369 99.2612 165.369C99.8521 165.369 100.369 165.51 100.812 165.791C101.258 166.072 101.605 166.467 101.852 166.976C102.102 167.484 102.227 168.08 102.227 168.761C102.227 169.437 102.102 170.028 101.852 170.534C101.605 171.04 101.258 171.433 100.812 171.714C100.369 171.996 99.8521 172.136 99.2612 172.136ZM99.2612 171.233C99.71 171.233 100.079 171.118 100.369 170.888C100.659 170.658 100.873 170.355 101.013 169.98C101.152 169.605 101.221 169.199 101.221 168.761C101.221 168.324 101.152 167.916 101.013 167.538C100.873 167.161 100.659 166.855 100.369 166.622C100.079 166.389 99.71 166.273 99.2612 166.273C98.8123 166.273 98.443 166.389 98.1532 166.622C97.8635 166.855 97.649 167.161 97.5098 167.538C97.3706 167.916 97.301 168.324 97.301 168.761C97.301 169.199 97.3706 169.605 97.5098 169.98C97.649 170.355 97.8635 170.658 98.1532 170.888C98.443 171.118 98.8123 171.233 99.2612 171.233ZM103.762 172V165.455H104.734V166.443H104.802C104.921 166.119 105.137 165.857 105.45 165.655C105.762 165.453 106.115 165.352 106.507 165.352C106.58 165.352 106.673 165.354 106.784 165.357C106.894 165.359 106.978 165.364 107.035 165.369V166.392C107.001 166.384 106.923 166.371 106.801 166.354C106.681 166.334 106.555 166.324 106.421 166.324C106.103 166.324 105.819 166.391 105.569 166.524C105.322 166.655 105.126 166.837 104.981 167.07C104.839 167.3 104.768 167.562 104.768 167.858V172H103.762ZM112.25 174.455C112.079 174.455 111.927 174.44 111.794 174.412C111.66 174.386 111.568 174.361 111.517 174.335L111.773 173.449C112.017 173.511 112.233 173.534 112.42 173.517C112.608 173.5 112.774 173.416 112.919 173.266C113.067 173.118 113.202 172.878 113.324 172.545L113.511 172.034L111.091 165.455H112.182L113.988 170.67H114.057L115.863 165.455H116.954L114.176 172.955C114.051 173.293 113.896 173.572 113.711 173.794C113.527 174.018 113.312 174.185 113.068 174.293C112.827 174.401 112.554 174.455 112.25 174.455ZM120.706 172.136C120.116 172.136 119.597 171.996 119.151 171.714C118.708 171.433 118.361 171.04 118.111 170.534C117.864 170.028 117.741 169.437 117.741 168.761C117.741 168.08 117.864 167.484 118.111 166.976C118.361 166.467 118.708 166.072 119.151 165.791C119.597 165.51 120.116 165.369 120.706 165.369C121.297 165.369 121.814 165.51 122.258 165.791C122.704 166.072 123.05 166.467 123.297 166.976C123.547 167.484 123.672 168.08 123.672 168.761C123.672 169.437 123.547 170.028 123.297 170.534C123.05 171.04 122.704 171.433 122.258 171.714C121.814 171.996 121.297 172.136 120.706 172.136ZM120.706 171.233C121.155 171.233 121.525 171.118 121.814 170.888C122.104 170.658 122.319 170.355 122.458 169.98C122.597 169.605 122.667 169.199 122.667 168.761C122.667 168.324 122.597 167.916 122.458 167.538C122.319 167.161 122.104 166.855 121.814 166.622C121.525 166.389 121.155 166.273 120.706 166.273C120.258 166.273 119.888 166.389 119.599 166.622C119.309 166.855 119.094 167.161 118.955 167.538C118.816 167.916 118.746 168.324 118.746 168.761C118.746 169.199 118.816 169.605 118.955 169.98C119.094 170.355 119.309 170.658 119.599 170.888C119.888 171.118 120.258 171.233 120.706 171.233ZM129.333 169.324V165.455H130.338V172H129.333V170.892H129.264C129.111 171.224 128.872 171.507 128.548 171.74C128.225 171.97 127.816 172.085 127.321 172.085C126.912 172.085 126.548 171.996 126.23 171.817C125.912 171.635 125.662 171.362 125.48 170.999C125.298 170.632 125.208 170.17 125.208 169.614V165.455H126.213V169.545C126.213 170.023 126.347 170.403 126.614 170.688C126.884 170.972 127.227 171.114 127.645 171.114C127.895 171.114 128.149 171.05 128.408 170.922C128.669 170.794 128.888 170.598 129.064 170.334C129.243 170.07 129.333 169.733 129.333 169.324ZM132.18 172V165.455H133.152V166.443H133.22C133.339 166.119 133.555 165.857 133.868 165.655C134.18 165.453 134.532 165.352 134.925 165.352C134.998 165.352 135.091 165.354 135.202 165.357C135.312 165.359 135.396 165.364 135.453 165.369V166.392C135.419 166.384 135.341 166.371 135.219 166.354C135.099 166.334 134.973 166.324 134.839 166.324C134.521 166.324 134.237 166.391 133.987 166.524C133.74 166.655 133.544 166.837 133.399 167.07C133.257 167.3 133.186 167.562 133.186 167.858V172H132.18ZM140.02 174.455V165.455H140.992V166.494H141.111C141.185 166.381 141.287 166.236 141.418 166.06C141.551 165.881 141.742 165.722 141.989 165.582C142.239 165.44 142.577 165.369 143.003 165.369C143.554 165.369 144.04 165.507 144.46 165.783C144.881 166.058 145.209 166.449 145.445 166.955C145.681 167.46 145.798 168.057 145.798 168.744C145.798 169.438 145.681 170.038 145.445 170.547C145.209 171.053 144.882 171.445 144.465 171.723C144.047 171.999 143.566 172.136 143.02 172.136C142.6 172.136 142.263 172.067 142.01 171.928C141.757 171.786 141.563 171.625 141.426 171.446C141.29 171.264 141.185 171.114 141.111 170.994H141.026V174.455H140.02ZM141.009 168.727C141.009 169.222 141.081 169.658 141.226 170.036C141.371 170.411 141.583 170.705 141.861 170.918C142.139 171.128 142.48 171.233 142.884 171.233C143.304 171.233 143.655 171.122 143.936 170.901C144.22 170.676 144.433 170.375 144.575 169.997C144.72 169.616 144.793 169.193 144.793 168.727C144.793 168.267 144.722 167.852 144.58 167.483C144.441 167.111 144.229 166.817 143.945 166.601C143.664 166.382 143.31 166.273 142.884 166.273C142.475 166.273 142.131 166.376 141.852 166.584C141.574 166.788 141.364 167.075 141.222 167.445C141.08 167.811 141.009 168.239 141.009 168.727ZM151.458 169.324V165.455H152.463V172H151.458V170.892H151.389C151.236 171.224 150.997 171.507 150.673 171.74C150.35 171.97 149.941 172.085 149.446 172.085C149.037 172.085 148.673 171.996 148.355 171.817C148.037 171.635 147.787 171.362 147.605 170.999C147.423 170.632 147.333 170.17 147.333 169.614V165.455H148.338V169.545C148.338 170.023 148.472 170.403 148.739 170.688C149.009 170.972 149.352 171.114 149.77 171.114C150.02 171.114 150.274 171.05 150.533 170.922C150.794 170.794 151.013 170.598 151.189 170.334C151.368 170.07 151.458 169.733 151.458 169.324ZM154.305 172V165.455H155.277V166.443H155.345C155.464 166.119 155.68 165.857 155.993 165.655C156.305 165.453 156.657 165.352 157.05 165.352C157.123 165.352 157.216 165.354 157.327 165.357C157.437 165.359 157.521 165.364 157.578 165.369V166.392C157.544 166.384 157.466 166.371 157.344 166.354C157.224 166.334 157.098 166.324 156.964 166.324C156.646 166.324 156.362 166.391 156.112 166.524C155.865 166.655 155.669 166.837 155.524 167.07C155.382 167.3 155.311 167.562 155.311 167.858V172H154.305ZM161.23 172.136C160.616 172.136 160.088 171.991 159.645 171.702C159.202 171.412 158.861 171.013 158.622 170.504C158.383 169.996 158.264 169.415 158.264 168.761C158.264 168.097 158.386 167.51 158.631 167.001C158.878 166.49 159.221 166.091 159.662 165.804C160.105 165.514 160.622 165.369 161.213 165.369C161.673 165.369 162.088 165.455 162.457 165.625C162.827 165.795 163.129 166.034 163.365 166.341C163.601 166.648 163.747 167.006 163.804 167.415H162.798C162.721 167.116 162.551 166.852 162.287 166.622C162.025 166.389 161.673 166.273 161.23 166.273C160.838 166.273 160.494 166.375 160.199 166.58C159.906 166.781 159.677 167.067 159.513 167.436C159.351 167.803 159.27 168.233 159.27 168.727C159.27 169.233 159.349 169.673 159.508 170.048C159.67 170.423 159.898 170.714 160.19 170.922C160.486 171.129 160.832 171.233 161.23 171.233C161.491 171.233 161.729 171.188 161.942 171.097C162.155 171.006 162.335 170.875 162.483 170.705C162.631 170.534 162.736 170.33 162.798 170.091H163.804C163.747 170.477 163.606 170.825 163.382 171.135C163.16 171.442 162.866 171.686 162.5 171.868C162.136 172.047 161.713 172.136 161.23 172.136ZM166.28 168.062V172H165.274V163.273H166.28V166.477H166.365C166.518 166.139 166.748 165.871 167.055 165.672C167.365 165.47 167.777 165.369 168.291 165.369C168.737 165.369 169.128 165.459 169.463 165.638C169.798 165.814 170.058 166.085 170.243 166.452C170.43 166.815 170.524 167.278 170.524 167.841V172H169.518V167.909C169.518 167.389 169.383 166.987 169.113 166.703C168.846 166.416 168.476 166.273 168.001 166.273C167.672 166.273 167.376 166.342 167.115 166.482C166.856 166.621 166.652 166.824 166.501 167.091C166.354 167.358 166.28 167.682 166.28 168.062ZM174.29 172.153C173.875 172.153 173.499 172.075 173.161 171.919C172.823 171.76 172.554 171.531 172.355 171.233C172.156 170.932 172.057 170.568 172.057 170.142C172.057 169.767 172.131 169.463 172.279 169.23C172.426 168.994 172.624 168.81 172.871 168.676C173.118 168.543 173.391 168.443 173.689 168.378C173.99 168.31 174.293 168.256 174.597 168.216C174.994 168.165 175.317 168.126 175.564 168.101C175.814 168.072 175.996 168.026 176.11 167.96C176.226 167.895 176.284 167.781 176.284 167.619V167.585C176.284 167.165 176.169 166.838 175.939 166.605C175.712 166.372 175.367 166.256 174.904 166.256C174.423 166.256 174.047 166.361 173.774 166.571C173.502 166.781 173.31 167.006 173.199 167.244L172.244 166.903C172.415 166.506 172.642 166.196 172.926 165.974C173.213 165.75 173.526 165.594 173.864 165.506C174.205 165.415 174.54 165.369 174.869 165.369C175.08 165.369 175.321 165.395 175.594 165.446C175.869 165.494 176.135 165.595 176.391 165.749C176.649 165.902 176.864 166.134 177.034 166.443C177.205 166.753 177.29 167.168 177.29 167.688V172H176.284V171.114H176.233C176.165 171.256 176.051 171.408 175.892 171.57C175.733 171.732 175.521 171.869 175.257 171.983C174.993 172.097 174.671 172.153 174.29 172.153ZM174.443 171.25C174.841 171.25 175.176 171.172 175.449 171.016C175.725 170.859 175.932 170.658 176.071 170.411C176.213 170.163 176.284 169.903 176.284 169.631V168.71C176.242 168.761 176.148 168.808 176.003 168.851C175.861 168.891 175.696 168.926 175.509 168.957C175.324 168.986 175.144 169.011 174.968 169.034C174.794 169.054 174.654 169.071 174.546 169.085C174.284 169.119 174.04 169.175 173.813 169.251C173.588 169.325 173.406 169.437 173.267 169.588C173.131 169.736 173.063 169.937 173.063 170.193C173.063 170.543 173.192 170.807 173.45 170.986C173.712 171.162 174.043 171.25 174.443 171.25ZM183.762 166.92L182.858 167.176C182.802 167.026 182.718 166.879 182.607 166.737C182.499 166.592 182.351 166.473 182.164 166.379C181.976 166.286 181.736 166.239 181.444 166.239C181.043 166.239 180.709 166.331 180.442 166.516C180.178 166.697 180.046 166.929 180.046 167.21C180.046 167.46 180.137 167.658 180.319 167.803C180.501 167.947 180.785 168.068 181.171 168.165L182.143 168.403C182.728 168.545 183.164 168.763 183.451 169.055C183.738 169.345 183.881 169.719 183.881 170.176C183.881 170.551 183.773 170.886 183.557 171.182C183.344 171.477 183.046 171.71 182.662 171.881C182.279 172.051 181.833 172.136 181.324 172.136C180.657 172.136 180.104 171.991 179.667 171.702C179.229 171.412 178.952 170.989 178.836 170.432L179.79 170.193C179.881 170.545 180.053 170.81 180.306 170.986C180.562 171.162 180.895 171.25 181.307 171.25C181.776 171.25 182.148 171.151 182.424 170.952C182.702 170.75 182.841 170.509 182.841 170.227C182.841 170 182.762 169.81 182.603 169.656C182.444 169.5 182.199 169.384 181.87 169.307L180.779 169.051C180.18 168.909 179.739 168.689 179.458 168.391C179.18 168.089 179.04 167.713 179.04 167.261C179.04 166.892 179.144 166.565 179.351 166.281C179.562 165.997 179.847 165.774 180.208 165.612C180.572 165.45 180.983 165.369 181.444 165.369C182.091 165.369 182.6 165.511 182.969 165.795C183.341 166.08 183.606 166.455 183.762 166.92ZM188.139 172.136C187.509 172.136 186.965 171.997 186.507 171.719C186.053 171.438 185.702 171.045 185.455 170.543C185.21 170.037 185.088 169.449 185.088 168.778C185.088 168.108 185.21 167.517 185.455 167.006C185.702 166.491 186.046 166.091 186.486 165.804C186.929 165.514 187.446 165.369 188.037 165.369C188.378 165.369 188.715 165.426 189.047 165.54C189.379 165.653 189.682 165.838 189.955 166.094C190.227 166.347 190.445 166.682 190.607 167.099C190.769 167.517 190.85 168.031 190.85 168.642V169.068H185.804V168.199H189.827C189.827 167.83 189.753 167.5 189.605 167.21C189.46 166.92 189.253 166.692 188.983 166.524C188.716 166.357 188.401 166.273 188.037 166.273C187.637 166.273 187.29 166.372 186.997 166.571C186.708 166.767 186.485 167.023 186.328 167.338C186.172 167.653 186.094 167.991 186.094 168.352V168.932C186.094 169.426 186.179 169.845 186.35 170.189C186.523 170.53 186.763 170.79 187.07 170.969C187.377 171.145 187.733 171.233 188.139 171.233C188.404 171.233 188.642 171.196 188.855 171.122C189.071 171.045 189.257 170.932 189.414 170.781C189.57 170.628 189.691 170.437 189.776 170.21L190.747 170.483C190.645 170.812 190.473 171.102 190.232 171.352C189.99 171.599 189.692 171.793 189.337 171.932C188.982 172.068 188.583 172.136 188.139 172.136ZM193.709 163.273L193.624 169.545H192.635L192.55 163.273H193.709ZM193.129 172.068C192.919 172.068 192.739 171.993 192.588 171.842C192.438 171.692 192.362 171.511 192.362 171.301C192.362 171.091 192.438 170.911 192.588 170.76C192.739 170.609 192.919 170.534 193.129 170.534C193.34 170.534 193.52 170.609 193.671 170.76C193.821 170.911 193.896 171.091 193.896 171.301C193.896 171.44 193.861 171.568 193.79 171.685C193.722 171.801 193.629 171.895 193.513 171.966C193.399 172.034 193.271 172.068 193.129 172.068ZM19.4826 188V179.273H24.7496V180.21H20.5394V183.159H24.4769V184.097H20.5394V187.062H24.8178V188H19.4826ZM27.5238 184.062V188H26.5181V181.455H27.4897V182.477H27.5749C27.7283 182.145 27.9613 181.878 28.2738 181.676C28.5863 181.472 28.9897 181.369 29.484 181.369C29.9272 181.369 30.315 181.46 30.6474 181.642C30.9798 181.821 31.2383 182.094 31.4229 182.46C31.6076 182.824 31.6999 183.284 31.6999 183.841V188H30.6942V183.909C30.6942 183.395 30.5607 182.994 30.2937 182.707C30.0266 182.418 29.6602 182.273 29.1942 182.273C28.8732 182.273 28.5863 182.342 28.3335 182.482C28.0835 182.621 27.886 182.824 27.7411 183.091C27.5962 183.358 27.5238 183.682 27.5238 184.062ZM33.5376 181.455H34.5433V188.477C34.5433 188.881 34.4737 189.23 34.3345 189.526C34.1982 189.821 33.9908 190.05 33.7124 190.212C33.4368 190.374 33.0888 190.455 32.6683 190.455C32.6342 190.455 32.6001 190.455 32.5661 190.455C32.532 190.455 32.4979 190.455 32.4638 190.455V189.517C32.4979 189.517 32.5291 189.517 32.5575 189.517C32.5859 189.517 32.6172 189.517 32.6513 189.517C32.9581 189.517 33.1825 189.426 33.3246 189.244C33.4666 189.065 33.5376 188.81 33.5376 188.477V181.455ZM34.032 180.364C33.8359 180.364 33.6669 180.297 33.5249 180.163C33.3857 180.03 33.3161 179.869 33.3161 179.682C33.3161 179.494 33.3857 179.334 33.5249 179.2C33.6669 179.067 33.8359 179 34.032 179C34.228 179 34.3956 179.067 34.5348 179.2C34.6768 179.334 34.7479 179.494 34.7479 179.682C34.7479 179.869 34.6768 180.03 34.5348 180.163C34.3956 180.297 34.228 180.364 34.032 180.364ZM39.0444 188.136C38.4535 188.136 37.935 187.996 37.489 187.714C37.0458 187.433 36.6992 187.04 36.4492 186.534C36.2021 186.028 36.0785 185.437 36.0785 184.761C36.0785 184.08 36.2021 183.484 36.4492 182.976C36.6992 182.467 37.0458 182.072 37.489 181.791C37.935 181.51 38.4535 181.369 39.0444 181.369C39.6353 181.369 40.1523 181.51 40.5955 181.791C41.0415 182.072 41.3881 182.467 41.6353 182.976C41.8853 183.484 42.0103 184.08 42.0103 184.761C42.0103 185.437 41.8853 186.028 41.6353 186.534C41.3881 187.04 41.0415 187.433 40.5955 187.714C40.1523 187.996 39.6353 188.136 39.0444 188.136ZM39.0444 187.233C39.4933 187.233 39.8626 187.118 40.1523 186.888C40.4421 186.658 40.6566 186.355 40.7958 185.98C40.935 185.605 41.0046 185.199 41.0046 184.761C41.0046 184.324 40.935 183.916 40.7958 183.538C40.6566 183.161 40.4421 182.855 40.1523 182.622C39.8626 182.389 39.4933 182.273 39.0444 182.273C38.5955 182.273 38.2262 182.389 37.9364 182.622C37.6467 182.855 37.4322 183.161 37.293 183.538C37.1538 183.916 37.0842 184.324 37.0842 184.761C37.0842 185.199 37.1538 185.605 37.293 185.98C37.4322 186.355 37.6467 186.658 37.9364 186.888C38.2262 187.118 38.5955 187.233 39.0444 187.233ZM43.9588 190.455C43.7884 190.455 43.6364 190.44 43.5028 190.412C43.3693 190.386 43.277 190.361 43.2259 190.335L43.4815 189.449C43.7259 189.511 43.9418 189.534 44.1293 189.517C44.3168 189.5 44.483 189.416 44.6278 189.266C44.7756 189.118 44.9105 188.878 45.0327 188.545L45.2202 188.034L42.7997 181.455H43.8906L45.6974 186.67H45.7656L47.5724 181.455H48.6634L45.8849 188.955C45.7599 189.293 45.6051 189.572 45.4205 189.794C45.2358 190.018 45.0213 190.185 44.777 190.293C44.5355 190.401 44.2628 190.455 43.9588 190.455ZM56.2124 181.455V182.307H52.8203V181.455H56.2124ZM53.8089 179.886H54.8146V186.125C54.8146 186.409 54.8558 186.622 54.9382 186.764C55.0234 186.903 55.1314 186.997 55.2621 187.045C55.3956 187.091 55.5362 187.114 55.6839 187.114C55.7947 187.114 55.8857 187.108 55.9567 187.097C56.0277 187.082 56.0845 187.071 56.1271 187.062L56.3317 187.966C56.2635 187.991 56.1683 188.017 56.0462 188.043C55.924 188.071 55.7692 188.085 55.5817 188.085C55.2976 188.085 55.0192 188.024 54.7464 187.902C54.4766 187.78 54.2521 187.594 54.0732 187.344C53.897 187.094 53.8089 186.778 53.8089 186.398V179.886ZM58.8714 184.062V188H57.8658V179.273H58.8714V182.477H58.9567C59.1101 182.139 59.3402 181.871 59.647 181.672C59.9567 181.47 60.3686 181.369 60.8828 181.369C61.3288 181.369 61.7195 181.459 62.0547 181.638C62.3899 181.814 62.6499 182.085 62.8345 182.452C63.022 182.815 63.1158 183.278 63.1158 183.841V188H62.1101V183.909C62.1101 183.389 61.9751 182.987 61.7053 182.703C61.4382 182.416 61.0675 182.273 60.593 182.273C60.2635 182.273 59.968 182.342 59.7067 182.482C59.4482 182.621 59.2436 182.824 59.093 183.091C58.9453 183.358 58.8714 183.682 58.8714 184.062ZM67.6999 188.136C67.0692 188.136 66.5252 187.997 66.0678 187.719C65.6133 187.438 65.2624 187.045 65.0153 186.543C64.771 186.037 64.6488 185.449 64.6488 184.778C64.6488 184.108 64.771 183.517 65.0153 183.006C65.2624 182.491 65.6062 182.091 66.0465 181.804C66.4897 181.514 67.0067 181.369 67.5977 181.369C67.9386 181.369 68.2752 181.426 68.6076 181.54C68.94 181.653 69.2425 181.838 69.5153 182.094C69.788 182.347 70.0053 182.682 70.1673 183.099C70.3292 183.517 70.4102 184.031 70.4102 184.642V185.068H65.3647V184.199H69.3874C69.3874 183.83 69.3136 183.5 69.1658 183.21C69.021 182.92 68.8136 182.692 68.5437 182.524C68.2766 182.357 67.9613 182.273 67.5977 182.273C67.1971 182.273 66.8505 182.372 66.5579 182.571C66.2681 182.767 66.0451 183.023 65.8888 183.338C65.7326 183.653 65.6545 183.991 65.6545 184.352V184.932C65.6545 185.426 65.7397 185.845 65.9102 186.189C66.0835 186.53 66.3235 186.79 66.6303 186.969C66.9371 187.145 67.2937 187.233 67.6999 187.233C67.9641 187.233 68.2028 187.196 68.4158 187.122C68.6317 187.045 68.8178 186.932 68.9741 186.781C69.1303 186.628 69.2511 186.437 69.3363 186.21L70.3079 186.483C70.2056 186.812 70.0337 187.102 69.7923 187.352C69.5508 187.599 69.2525 187.793 68.8974 187.932C68.5423 188.068 68.1431 188.136 67.6999 188.136ZM78.2298 181.455V182.307H74.7013V181.455H78.2298ZM75.7582 188V180.551C75.7582 180.176 75.8462 179.864 76.0224 179.614C76.1985 179.364 76.4272 179.176 76.7085 179.051C76.9897 178.926 77.2866 178.864 77.5991 178.864C77.8462 178.864 78.0479 178.884 78.2042 178.923C78.3604 178.963 78.4769 179 78.5536 179.034L78.2638 179.903C78.2127 179.886 78.1417 179.865 78.0508 179.839C77.9627 179.814 77.8462 179.801 77.7013 179.801C77.369 179.801 77.1289 179.885 76.9812 180.053C76.8363 180.22 76.7638 180.466 76.7638 180.79V188H75.7582ZM82.114 188.136C81.4833 188.136 80.9393 187.997 80.4819 187.719C80.0273 187.438 79.6765 187.045 79.4293 186.543C79.185 186.037 79.0629 185.449 79.0629 184.778C79.0629 184.108 79.185 183.517 79.4293 183.006C79.6765 182.491 80.0202 182.091 80.4606 181.804C80.9038 181.514 81.4208 181.369 82.0117 181.369C82.3526 181.369 82.6893 181.426 83.0217 181.54C83.354 181.653 83.6566 181.838 83.9293 182.094C84.2021 182.347 84.4194 182.682 84.5813 183.099C84.7433 183.517 84.8242 184.031 84.8242 184.642V185.068H79.7788V184.199H83.8015C83.8015 183.83 83.7276 183.5 83.5799 183.21C83.435 182.92 83.2276 182.692 82.9577 182.524C82.6907 182.357 82.3754 182.273 82.0117 182.273C81.6112 182.273 81.2646 182.372 80.9719 182.571C80.6822 182.767 80.4592 183.023 80.3029 183.338C80.1467 183.653 80.0685 183.991 80.0685 184.352V184.932C80.0685 185.426 80.1538 185.845 80.3242 186.189C80.4975 186.53 80.7376 186.79 81.0444 186.969C81.3512 187.145 81.7077 187.233 82.114 187.233C82.3782 187.233 82.6168 187.196 82.8299 187.122C83.0458 187.045 83.2319 186.932 83.3881 186.781C83.5444 186.628 83.6651 186.437 83.7504 186.21L84.7219 186.483C84.6197 186.812 84.4478 187.102 84.2063 187.352C83.9648 187.599 83.6665 187.793 83.3114 187.932C82.9563 188.068 82.5572 188.136 82.114 188.136ZM90.9904 182.92L90.087 183.176C90.0302 183.026 89.9464 182.879 89.8356 182.737C89.7276 182.592 89.5799 182.473 89.3924 182.379C89.2049 182.286 88.9648 182.239 88.6722 182.239C88.2717 182.239 87.9379 182.331 87.6708 182.516C87.4066 182.697 87.2745 182.929 87.2745 183.21C87.2745 183.46 87.3654 183.658 87.5472 183.803C87.729 183.947 88.0131 184.068 88.3995 184.165L89.3711 184.403C89.9563 184.545 90.3924 184.763 90.6793 185.055C90.9663 185.345 91.1097 185.719 91.1097 186.176C91.1097 186.551 91.0018 186.886 90.7859 187.182C90.5728 187.477 90.2745 187.71 89.891 187.881C89.5075 188.051 89.0614 188.136 88.5529 188.136C87.8853 188.136 87.3327 187.991 86.8952 187.702C86.4577 187.412 86.1808 186.989 86.0643 186.432L87.0188 186.193C87.1097 186.545 87.2816 186.81 87.5344 186.986C87.7901 187.162 88.1239 187.25 88.5359 187.25C89.0046 187.25 89.3768 187.151 89.6523 186.952C89.9308 186.75 90.07 186.509 90.07 186.227C90.07 186 89.9904 185.81 89.8313 185.656C89.6722 185.5 89.4279 185.384 89.0984 185.307L88.0075 185.051C87.408 184.909 86.9677 184.689 86.6864 184.391C86.408 184.089 86.2688 183.713 86.2688 183.261C86.2688 182.892 86.3725 182.565 86.5799 182.281C86.7901 181.997 87.0756 181.774 87.4364 181.612C87.8001 181.45 88.212 181.369 88.6722 181.369C89.32 181.369 89.8285 181.511 90.1978 181.795C90.57 182.08 90.8342 182.455 90.9904 182.92ZM95.4702 181.455V182.307H92.0781V181.455H95.4702ZM93.0668 179.886H94.0724V186.125C94.0724 186.409 94.1136 186.622 94.196 186.764C94.2813 186.903 94.3892 186.997 94.5199 187.045C94.6534 187.091 94.794 187.114 94.9418 187.114C95.0526 187.114 95.1435 187.108 95.2145 187.097C95.2855 187.082 95.3423 187.071 95.3849 187.062L95.5895 187.966C95.5213 187.991 95.4261 188.017 95.304 188.043C95.1818 188.071 95.027 188.085 94.8395 188.085C94.5554 188.085 94.277 188.024 94.0043 187.902C93.7344 187.78 93.5099 187.594 93.331 187.344C93.1548 187.094 93.0668 186.778 93.0668 186.398V179.886ZM96.983 188V181.455H97.9886V188H96.983ZM97.4943 180.364C97.2983 180.364 97.1293 180.297 96.9872 180.163C96.848 180.03 96.7784 179.869 96.7784 179.682C96.7784 179.494 96.848 179.334 96.9872 179.2C97.1293 179.067 97.2983 179 97.4943 179C97.6903 179 97.858 179.067 97.9972 179.2C98.1392 179.334 98.2102 179.494 98.2102 179.682C98.2102 179.869 98.1392 180.03 97.9972 180.163C97.858 180.297 97.6903 180.364 97.4943 180.364ZM105.183 181.455L102.762 188H101.74L99.3192 181.455H100.41L102.217 186.67H102.285L104.092 181.455H105.183ZM108.237 188.153C107.822 188.153 107.446 188.075 107.108 187.919C106.77 187.76 106.501 187.531 106.303 187.233C106.104 186.932 106.004 186.568 106.004 186.142C106.004 185.767 106.078 185.463 106.226 185.23C106.374 184.994 106.571 184.81 106.818 184.676C107.065 184.543 107.338 184.443 107.636 184.378C107.938 184.31 108.24 184.256 108.544 184.216C108.942 184.165 109.264 184.126 109.511 184.101C109.761 184.072 109.943 184.026 110.057 183.96C110.173 183.895 110.232 183.781 110.232 183.619V183.585C110.232 183.165 110.116 182.838 109.886 182.605C109.659 182.372 109.314 182.256 108.851 182.256C108.371 182.256 107.994 182.361 107.722 182.571C107.449 182.781 107.257 183.006 107.146 183.244L106.192 182.903C106.362 182.506 106.589 182.196 106.874 181.974C107.161 181.75 107.473 181.594 107.811 181.506C108.152 181.415 108.487 181.369 108.817 181.369C109.027 181.369 109.268 181.395 109.541 181.446C109.817 181.494 110.082 181.595 110.338 181.749C110.597 181.902 110.811 182.134 110.982 182.443C111.152 182.753 111.237 183.168 111.237 183.688V188H110.232V187.114H110.18C110.112 187.256 109.999 187.408 109.839 187.57C109.68 187.732 109.469 187.869 109.205 187.983C108.94 188.097 108.618 188.153 108.237 188.153ZM108.391 187.25C108.788 187.25 109.124 187.172 109.396 187.016C109.672 186.859 109.879 186.658 110.018 186.411C110.161 186.163 110.232 185.903 110.232 185.631V184.71C110.189 184.761 110.095 184.808 109.95 184.851C109.808 184.891 109.643 184.926 109.456 184.957C109.271 184.986 109.091 185.011 108.915 185.034C108.741 185.054 108.601 185.071 108.493 185.085C108.232 185.119 107.987 185.175 107.76 185.251C107.536 185.325 107.354 185.437 107.214 185.588C107.078 185.736 107.01 185.937 107.01 186.193C107.01 186.543 107.139 186.807 107.398 186.986C107.659 187.162 107.99 187.25 108.391 187.25ZM114.078 179.273V188H113.073V179.273H114.078ZM121.222 188.153C120.807 188.153 120.43 188.075 120.092 187.919C119.754 187.76 119.486 187.531 119.287 187.233C119.088 186.932 118.989 186.568 118.989 186.142C118.989 185.767 119.063 185.463 119.21 185.23C119.358 184.994 119.555 184.81 119.803 184.676C120.05 184.543 120.322 184.443 120.621 184.378C120.922 184.31 121.224 184.256 121.528 184.216C121.926 184.165 122.249 184.126 122.496 184.101C122.746 184.072 122.928 184.026 123.041 183.96C123.158 183.895 123.216 183.781 123.216 183.619V183.585C123.216 183.165 123.101 182.838 122.871 182.605C122.643 182.372 122.298 182.256 121.835 182.256C121.355 182.256 120.979 182.361 120.706 182.571C120.433 182.781 120.241 183.006 120.131 183.244L119.176 182.903C119.347 182.506 119.574 182.196 119.858 181.974C120.145 181.75 120.457 181.594 120.795 181.506C121.136 181.415 121.472 181.369 121.801 181.369C122.011 181.369 122.253 181.395 122.526 181.446C122.801 181.494 123.067 181.595 123.322 181.749C123.581 181.902 123.795 182.134 123.966 182.443C124.136 182.753 124.222 183.168 124.222 183.688V188H123.216V187.114H123.165C123.097 187.256 122.983 187.408 122.824 187.57C122.665 187.732 122.453 187.869 122.189 187.983C121.925 188.097 121.602 188.153 121.222 188.153ZM121.375 187.25C121.773 187.25 122.108 187.172 122.381 187.016C122.656 186.859 122.864 186.658 123.003 186.411C123.145 186.163 123.216 185.903 123.216 185.631V184.71C123.173 184.761 123.08 184.808 122.935 184.851C122.793 184.891 122.628 184.926 122.44 184.957C122.256 184.986 122.075 185.011 121.899 185.034C121.726 185.054 121.585 185.071 121.477 185.085C121.216 185.119 120.972 185.175 120.744 185.251C120.52 185.325 120.338 185.437 120.199 185.588C120.063 185.736 119.994 185.937 119.994 186.193C119.994 186.543 120.124 186.807 120.382 186.986C120.643 187.162 120.974 187.25 121.375 187.25ZM127.063 184.062V188H126.057V181.455H127.029V182.477H127.114C127.267 182.145 127.5 181.878 127.813 181.676C128.125 181.472 128.529 181.369 129.023 181.369C129.466 181.369 129.854 181.46 130.186 181.642C130.519 181.821 130.777 182.094 130.962 182.46C131.147 182.824 131.239 183.284 131.239 183.841V188H130.233V183.909C130.233 183.395 130.1 182.994 129.833 182.707C129.566 182.418 129.199 182.273 128.733 182.273C128.412 182.273 128.125 182.342 127.873 182.482C127.623 182.621 127.425 182.824 127.28 183.091C127.135 183.358 127.063 183.682 127.063 184.062ZM135.548 188.136C135.003 188.136 134.521 187.999 134.104 187.723C133.686 187.445 133.359 187.053 133.124 186.547C132.888 186.038 132.77 185.438 132.77 184.744C132.77 184.057 132.888 183.46 133.124 182.955C133.359 182.449 133.688 182.058 134.108 181.783C134.528 181.507 135.014 181.369 135.565 181.369C135.991 181.369 136.328 181.44 136.575 181.582C136.825 181.722 137.016 181.881 137.146 182.06C137.28 182.236 137.384 182.381 137.457 182.494H137.543V179.273H138.548V188H137.577V186.994H137.457C137.384 187.114 137.278 187.264 137.142 187.446C137.006 187.625 136.811 187.786 136.558 187.928C136.305 188.067 135.969 188.136 135.548 188.136ZM135.685 187.233C136.088 187.233 136.429 187.128 136.707 186.918C136.986 186.705 137.197 186.411 137.342 186.036C137.487 185.658 137.56 185.222 137.56 184.727C137.56 184.239 137.489 183.811 137.347 183.445C137.205 183.075 136.994 182.788 136.716 182.584C136.438 182.376 136.094 182.273 135.685 182.273C135.259 182.273 134.903 182.382 134.619 182.601C134.338 182.817 134.126 183.111 133.984 183.483C133.845 183.852 133.776 184.267 133.776 184.727C133.776 185.193 133.847 185.616 133.989 185.997C134.134 186.375 134.347 186.676 134.628 186.901C134.912 187.122 135.264 187.233 135.685 187.233ZM146.649 188.136C146.018 188.136 145.474 187.997 145.017 187.719C144.562 187.438 144.212 187.045 143.964 186.543C143.72 186.037 143.598 185.449 143.598 184.778C143.598 184.108 143.72 183.517 143.964 183.006C144.212 182.491 144.555 182.091 144.996 181.804C145.439 181.514 145.956 181.369 146.547 181.369C146.888 181.369 147.224 181.426 147.557 181.54C147.889 181.653 148.192 181.838 148.464 182.094C148.737 182.347 148.955 182.682 149.116 183.099C149.278 183.517 149.359 184.031 149.359 184.642V185.068H144.314V184.199H148.337C148.337 183.83 148.263 183.5 148.115 183.21C147.97 182.92 147.763 182.692 147.493 182.524C147.226 182.357 146.911 182.273 146.547 182.273C146.146 182.273 145.8 182.372 145.507 182.571C145.217 182.767 144.994 183.023 144.838 183.338C144.682 183.653 144.604 183.991 144.604 184.352V184.932C144.604 185.426 144.689 185.845 144.859 186.189C145.033 186.53 145.273 186.79 145.58 186.969C145.886 187.145 146.243 187.233 146.649 187.233C146.913 187.233 147.152 187.196 147.365 187.122C147.581 187.045 147.767 186.932 147.923 186.781C148.08 186.628 148.2 186.437 148.286 186.21L149.257 186.483C149.155 186.812 148.983 187.102 148.741 187.352C148.5 187.599 148.202 187.793 147.847 187.932C147.491 188.068 147.092 188.136 146.649 188.136ZM151.463 181.455L153.032 184.131L154.6 181.455H155.759L153.645 184.727L155.759 188H154.6L153.032 185.46L151.463 188H150.304L152.384 184.727L150.304 181.455H151.463ZM157.194 190.455V181.455H158.165V182.494H158.285C158.359 182.381 158.461 182.236 158.592 182.06C158.725 181.881 158.915 181.722 159.163 181.582C159.413 181.44 159.751 181.369 160.177 181.369C160.728 181.369 161.214 181.507 161.634 181.783C162.055 182.058 162.383 182.449 162.619 182.955C162.854 183.46 162.972 184.057 162.972 184.744C162.972 185.438 162.854 186.038 162.619 186.547C162.383 187.053 162.056 187.445 161.638 187.723C161.221 187.999 160.739 188.136 160.194 188.136C159.773 188.136 159.437 188.067 159.184 187.928C158.931 187.786 158.737 187.625 158.6 187.446C158.464 187.264 158.359 187.114 158.285 186.994H158.2V190.455H157.194ZM158.183 184.727C158.183 185.222 158.255 185.658 158.4 186.036C158.545 186.411 158.756 186.705 159.035 186.918C159.313 187.128 159.654 187.233 160.058 187.233C160.478 187.233 160.829 187.122 161.11 186.901C161.394 186.676 161.607 186.375 161.749 185.997C161.894 185.616 161.967 185.193 161.967 184.727C161.967 184.267 161.896 183.852 161.754 183.483C161.614 183.111 161.403 182.817 161.119 182.601C160.837 182.382 160.484 182.273 160.058 182.273C159.648 182.273 159.305 182.376 159.026 182.584C158.748 182.788 158.538 183.075 158.396 183.445C158.254 183.811 158.183 184.239 158.183 184.727ZM167.251 188.136C166.62 188.136 166.076 187.997 165.619 187.719C165.164 187.438 164.813 187.045 164.566 186.543C164.322 186.037 164.2 185.449 164.2 184.778C164.2 184.108 164.322 183.517 164.566 183.006C164.813 182.491 165.157 182.091 165.597 181.804C166.04 181.514 166.558 181.369 167.148 181.369C167.489 181.369 167.826 181.426 168.158 181.54C168.491 181.653 168.793 181.838 169.066 182.094C169.339 182.347 169.556 182.682 169.718 183.099C169.88 183.517 169.961 184.031 169.961 184.642V185.068H164.915V184.199H168.938C168.938 183.83 168.864 183.5 168.717 183.21C168.572 182.92 168.364 182.692 168.094 182.524C167.827 182.357 167.512 182.273 167.148 182.273C166.748 182.273 166.401 182.372 166.109 182.571C165.819 182.767 165.596 183.023 165.44 183.338C165.283 183.653 165.205 183.991 165.205 184.352V184.932C165.205 185.426 165.29 185.845 165.461 186.189C165.634 186.53 165.874 186.79 166.181 186.969C166.488 187.145 166.844 187.233 167.251 187.233C167.515 187.233 167.754 187.196 167.967 187.122C168.183 187.045 168.369 186.932 168.525 186.781C168.681 186.628 168.802 186.437 168.887 186.21L169.859 186.483C169.756 186.812 169.585 187.102 169.343 187.352C169.102 187.599 168.803 187.793 168.448 187.932C168.093 188.068 167.694 188.136 167.251 188.136ZM171.491 188V181.455H172.462V182.443H172.531C172.65 182.119 172.866 181.857 173.178 181.655C173.491 181.453 173.843 181.352 174.235 181.352C174.309 181.352 174.401 181.354 174.512 181.357C174.623 181.359 174.707 181.364 174.763 181.369V182.392C174.729 182.384 174.651 182.371 174.529 182.354C174.41 182.334 174.283 182.324 174.15 182.324C173.832 182.324 173.548 182.391 173.298 182.524C173.05 182.655 172.854 182.837 172.71 183.07C172.567 183.3 172.496 183.562 172.496 183.858V188H171.491ZM175.956 188V181.455H176.961V188H175.956ZM176.467 180.364C176.271 180.364 176.102 180.297 175.96 180.163C175.821 180.03 175.751 179.869 175.751 179.682C175.751 179.494 175.821 179.334 175.96 179.2C176.102 179.067 176.271 179 176.467 179C176.663 179 176.831 179.067 176.97 179.2C177.112 179.334 177.183 179.494 177.183 179.682C177.183 179.869 177.112 180.03 176.97 180.163C176.831 180.297 176.663 180.364 176.467 180.364ZM181.548 188.136C180.917 188.136 180.373 187.997 179.915 187.719C179.461 187.438 179.11 187.045 178.863 186.543C178.619 186.037 178.496 185.449 178.496 184.778C178.496 184.108 178.619 183.517 178.863 183.006C179.11 182.491 179.454 182.091 179.894 181.804C180.337 181.514 180.854 181.369 181.445 181.369C181.786 181.369 182.123 181.426 182.455 181.54C182.788 181.653 183.09 181.838 183.363 182.094C183.636 182.347 183.853 182.682 184.015 183.099C184.177 183.517 184.258 184.031 184.258 184.642V185.068H179.212V184.199H183.235C183.235 183.83 183.161 183.5 183.013 183.21C182.869 182.92 182.661 182.692 182.391 182.524C182.124 182.357 181.809 182.273 181.445 182.273C181.045 182.273 180.698 182.372 180.406 182.571C180.116 182.767 179.893 183.023 179.737 183.338C179.58 183.653 179.502 183.991 179.502 184.352V184.932C179.502 185.426 179.587 185.845 179.758 186.189C179.931 186.53 180.171 186.79 180.478 186.969C180.785 187.145 181.141 187.233 181.548 187.233C181.812 187.233 182.05 187.196 182.263 187.122C182.479 187.045 182.665 186.932 182.822 186.781C182.978 186.628 183.099 186.437 183.184 186.21L184.156 186.483C184.053 186.812 183.881 187.102 183.64 187.352C183.398 187.599 183.1 187.793 182.745 187.932C182.39 188.068 181.991 188.136 181.548 188.136ZM186.793 184.062V188H185.788V181.455H186.759V182.477H186.844C186.998 182.145 187.231 181.878 187.543 181.676C187.856 181.472 188.259 181.369 188.754 181.369C189.197 181.369 189.585 181.46 189.917 181.642C190.249 181.821 190.508 182.094 190.692 182.46C190.877 182.824 190.969 183.284 190.969 183.841V188H189.964V183.909C189.964 183.395 189.83 182.994 189.563 182.707C189.296 182.418 188.93 182.273 188.464 182.273C188.143 182.273 187.856 182.342 187.603 182.482C187.353 182.621 187.156 182.824 187.011 183.091C186.866 183.358 186.793 183.682 186.793 184.062ZM195.466 188.136C194.853 188.136 194.324 187.991 193.881 187.702C193.438 187.412 193.097 187.013 192.858 186.504C192.62 185.996 192.5 185.415 192.5 184.761C192.5 184.097 192.623 183.51 192.867 183.001C193.114 182.49 193.458 182.091 193.898 181.804C194.341 181.514 194.858 181.369 195.449 181.369C195.909 181.369 196.324 181.455 196.694 181.625C197.063 181.795 197.365 182.034 197.601 182.341C197.837 182.648 197.983 183.006 198.04 183.415H197.034C196.958 183.116 196.787 182.852 196.523 182.622C196.262 182.389 195.909 182.273 195.466 182.273C195.074 182.273 194.73 182.375 194.435 182.58C194.142 182.781 193.914 183.067 193.749 183.436C193.587 183.803 193.506 184.233 193.506 184.727C193.506 185.233 193.586 185.673 193.745 186.048C193.907 186.423 194.134 186.714 194.426 186.922C194.722 187.129 195.069 187.233 195.466 187.233C195.728 187.233 195.965 187.188 196.178 187.097C196.391 187.006 196.571 186.875 196.719 186.705C196.867 186.534 196.972 186.33 197.034 186.091H198.04C197.983 186.477 197.843 186.825 197.618 187.135C197.397 187.442 197.103 187.686 196.736 187.868C196.373 188.047 195.949 188.136 195.466 188.136ZM202.255 188.136C201.624 188.136 201.08 187.997 200.623 187.719C200.168 187.438 199.817 187.045 199.57 186.543C199.326 186.037 199.203 185.449 199.203 184.778C199.203 184.108 199.326 183.517 199.57 183.006C199.817 182.491 200.161 182.091 200.601 181.804C201.044 181.514 201.561 181.369 202.152 181.369C202.493 181.369 202.83 181.426 203.162 181.54C203.495 181.653 203.797 181.838 204.07 182.094C204.343 182.347 204.56 182.682 204.722 183.099C204.884 183.517 204.965 184.031 204.965 184.642V185.068H199.919V184.199H203.942C203.942 183.83 203.868 183.5 203.721 183.21C203.576 182.92 203.368 182.692 203.098 182.524C202.831 182.357 202.516 182.273 202.152 182.273C201.752 182.273 201.405 182.372 201.113 182.571C200.823 182.767 200.6 183.023 200.444 183.338C200.287 183.653 200.209 183.991 200.209 184.352V184.932C200.209 185.426 200.294 185.845 200.465 186.189C200.638 186.53 200.878 186.79 201.185 186.969C201.492 187.145 201.848 187.233 202.255 187.233C202.519 187.233 202.757 187.196 202.971 187.122C203.186 187.045 203.373 186.932 203.529 186.781C203.685 186.628 203.806 186.437 203.891 186.21L204.863 186.483C204.76 186.812 204.588 187.102 204.347 187.352C204.105 187.599 203.807 187.793 203.452 187.932C203.097 188.068 202.698 188.136 202.255 188.136ZM34.2983 197.455V198.307H30.9062V197.455H34.2983ZM31.8949 195.886H32.9006V202.125C32.9006 202.409 32.9418 202.622 33.0241 202.764C33.1094 202.903 33.2173 202.997 33.348 203.045C33.4815 203.091 33.6222 203.114 33.7699 203.114C33.8807 203.114 33.9716 203.108 34.0426 203.097C34.1136 203.082 34.1705 203.071 34.2131 203.062L34.4176 203.966C34.3494 203.991 34.2543 204.017 34.1321 204.043C34.0099 204.071 33.8551 204.085 33.6676 204.085C33.3835 204.085 33.1051 204.024 32.8324 203.902C32.5625 203.78 32.3381 203.594 32.1591 203.344C31.983 203.094 31.8949 202.778 31.8949 202.398V195.886ZM36.9574 200.062V204H35.9517V195.273H36.9574V198.477H37.0426C37.196 198.139 37.4261 197.871 37.733 197.672C38.0426 197.47 38.4545 197.369 38.9688 197.369C39.4148 197.369 39.8054 197.459 40.1406 197.638C40.4759 197.814 40.7358 198.085 40.9205 198.452C41.108 198.815 41.2017 199.278 41.2017 199.841V204H40.196V199.909C40.196 199.389 40.0611 198.987 39.7912 198.703C39.5241 198.416 39.1534 198.273 38.679 198.273C38.3494 198.273 38.054 198.342 37.7926 198.482C37.5341 198.621 37.3295 198.824 37.179 199.091C37.0313 199.358 36.9574 199.682 36.9574 200.062ZM45.7859 204.136C45.1552 204.136 44.6112 203.997 44.1538 203.719C43.6992 203.438 43.3484 203.045 43.1012 202.543C42.8569 202.037 42.7347 201.449 42.7347 200.778C42.7347 200.108 42.8569 199.517 43.1012 199.006C43.3484 198.491 43.6921 198.091 44.1325 197.804C44.5756 197.514 45.0927 197.369 45.6836 197.369C46.0245 197.369 46.3612 197.426 46.6935 197.54C47.0259 197.653 47.3285 197.838 47.6012 198.094C47.8739 198.347 48.0913 198.682 48.2532 199.099C48.4151 199.517 48.4961 200.031 48.4961 200.642V201.068H43.4506V200.199H47.4734C47.4734 199.83 47.3995 199.5 47.2518 199.21C47.1069 198.92 46.8995 198.692 46.6296 198.524C46.3626 198.357 46.0472 198.273 45.6836 198.273C45.283 198.273 44.9364 198.372 44.6438 198.571C44.354 198.767 44.131 199.023 43.9748 199.338C43.8185 199.653 43.7404 199.991 43.7404 200.352V200.932C43.7404 201.426 43.8256 201.845 43.9961 202.189C44.1694 202.53 44.4094 202.79 44.7163 202.969C45.0231 203.145 45.3796 203.233 45.7859 203.233C46.0501 203.233 46.2887 203.196 46.5018 203.122C46.7177 203.045 46.9038 202.932 47.06 202.781C47.2163 202.628 47.337 202.437 47.4222 202.21L48.3938 202.483C48.2915 202.812 48.1197 203.102 47.8782 203.352C47.6367 203.599 47.3384 203.793 46.9833 203.932C46.6282 204.068 46.229 204.136 45.7859 204.136ZM53.4009 204V197.455H54.3725V198.443H54.4407C54.56 198.119 54.7759 197.857 55.0884 197.655C55.4009 197.453 55.7532 197.352 56.1452 197.352C56.2191 197.352 56.3114 197.354 56.4222 197.357C56.533 197.359 56.6168 197.364 56.6737 197.369V198.392C56.6396 198.384 56.5614 198.371 56.4393 198.354C56.32 198.334 56.1935 198.324 56.06 198.324C55.7418 198.324 55.4577 198.391 55.2077 198.524C54.9606 198.655 54.7646 198.837 54.6197 199.07C54.4776 199.3 54.4066 199.562 54.4066 199.858V204H53.4009ZM58.8714 200.062V204H57.8658V195.273H58.8714V198.477H58.9567C59.1101 198.139 59.3402 197.871 59.647 197.672C59.9567 197.47 60.3686 197.369 60.8828 197.369C61.3288 197.369 61.7195 197.459 62.0547 197.638C62.3899 197.814 62.6499 198.085 62.8345 198.452C63.022 198.815 63.1158 199.278 63.1158 199.841V204H62.1101V199.909C62.1101 199.389 61.9751 198.987 61.7053 198.703C61.4382 198.416 61.0675 198.273 60.593 198.273C60.2635 198.273 59.968 198.342 59.7067 198.482C59.4482 198.621 59.2436 198.824 59.093 199.091C58.9453 199.358 58.8714 199.682 58.8714 200.062ZM65.369 206.455C65.1985 206.455 65.0465 206.44 64.913 206.412C64.7795 206.386 64.6871 206.361 64.636 206.335L64.8917 205.449C65.136 205.511 65.3519 205.534 65.5394 205.517C65.7269 205.5 65.8931 205.416 66.038 205.266C66.1857 205.118 66.3207 204.878 66.4428 204.545L66.6303 204.034L64.2099 197.455H65.3008L67.1076 202.67H67.1758L68.9826 197.455H70.0735L67.2951 204.955C67.1701 205.293 67.0153 205.572 66.8306 205.794C66.646 206.018 66.4315 206.185 66.1871 206.293C65.9457 206.401 65.6729 206.455 65.369 206.455ZM74.2475 197.455V198.307H70.8555V197.455H74.2475ZM71.8441 195.886H72.8498V202.125C72.8498 202.409 72.891 202.622 72.9734 202.764C73.0586 202.903 73.1665 202.997 73.2972 203.045C73.4308 203.091 73.5714 203.114 73.7191 203.114C73.8299 203.114 73.9208 203.108 73.9918 203.097C74.0629 203.082 74.1197 203.071 74.1623 203.062L74.3668 203.966C74.2987 203.991 74.2035 204.017 74.0813 204.043C73.9592 204.071 73.8043 204.085 73.6168 204.085C73.3327 204.085 73.0543 204.024 72.7816 203.902C72.5117 203.78 72.2873 203.594 72.1083 203.344C71.9322 203.094 71.8441 202.778 71.8441 202.398V195.886ZM76.9066 200.062V204H75.9009V195.273H76.9066V198.477H76.9918C77.1452 198.139 77.3754 197.871 77.6822 197.672C77.9918 197.47 78.4038 197.369 78.918 197.369C79.364 197.369 79.7546 197.459 80.0898 197.638C80.4251 197.814 80.685 198.085 80.8697 198.452C81.0572 198.815 81.1509 199.278 81.1509 199.841V204H80.1452V199.909C80.1452 199.389 80.0103 198.987 79.7404 198.703C79.4734 198.416 79.1026 198.273 78.6282 198.273C78.2987 198.273 78.0032 198.342 77.7418 198.482C77.4833 198.621 77.2788 198.824 77.1282 199.091C76.9805 199.358 76.9066 199.682 76.9066 200.062ZM82.9908 204V197.455H83.9624V198.477H84.0476C84.1839 198.128 84.4041 197.857 84.7081 197.663C85.0121 197.467 85.3771 197.369 85.8033 197.369C86.2351 197.369 86.5945 197.467 86.8814 197.663C87.1712 197.857 87.397 198.128 87.5589 198.477H87.6271C87.7947 198.139 88.0462 197.871 88.3814 197.672C88.7166 197.47 89.1186 197.369 89.5874 197.369C90.1726 197.369 90.6513 197.553 91.0234 197.919C91.3956 198.283 91.5817 198.849 91.5817 199.619V204H90.576V199.619C90.576 199.136 90.4439 198.791 90.1797 198.584C89.9155 198.376 89.6044 198.273 89.2464 198.273C88.7862 198.273 88.4297 198.412 88.1768 198.69C87.924 198.966 87.7976 199.315 87.7976 199.739V204H86.7749V199.517C86.7749 199.145 86.6541 198.845 86.4126 198.618C86.1712 198.388 85.8601 198.273 85.4794 198.273C85.218 198.273 84.9737 198.342 84.7464 198.482C84.522 198.621 84.3402 198.814 84.201 199.061C84.0646 199.305 83.9964 199.588 83.9964 199.909V204H82.9908ZM97.8011 195.273V204H96.7955V195.273H97.8011ZM99.6431 204V197.455H100.649V204H99.6431ZM100.154 196.364C99.9585 196.364 99.7894 196.297 99.6474 196.163C99.5082 196.03 99.4386 195.869 99.4386 195.682C99.4386 195.494 99.5082 195.334 99.6474 195.2C99.7894 195.067 99.9585 195 100.154 195C100.35 195 100.518 195.067 100.657 195.2C100.799 195.334 100.87 195.494 100.87 195.682C100.87 195.869 100.799 196.03 100.657 196.163C100.518 196.297 100.35 196.364 100.154 196.364ZM103.428 201.614L103.411 200.369H103.616L106.479 197.455H107.724L104.673 200.54H104.587L103.428 201.614ZM102.491 204V195.273H103.496V204H102.491ZM106.65 204L104.093 200.761L104.809 200.062L107.928 204H106.65ZM111.493 204.136C110.862 204.136 110.318 203.997 109.861 203.719C109.406 203.438 109.055 203.045 108.808 202.543C108.564 202.037 108.442 201.449 108.442 200.778C108.442 200.108 108.564 199.517 108.808 199.006C109.055 198.491 109.399 198.091 109.839 197.804C110.283 197.514 110.8 197.369 111.391 197.369C111.732 197.369 112.068 197.426 112.401 197.54C112.733 197.653 113.036 197.838 113.308 198.094C113.581 198.347 113.798 198.682 113.96 199.099C114.122 199.517 114.203 200.031 114.203 200.642V201.068H109.158V200.199H113.18C113.18 199.83 113.107 199.5 112.959 199.21C112.814 198.92 112.607 198.692 112.337 198.524C112.07 198.357 111.754 198.273 111.391 198.273C110.99 198.273 110.643 198.372 110.351 198.571C110.061 198.767 109.838 199.023 109.682 199.338C109.526 199.653 109.447 199.991 109.447 200.352V200.932C109.447 201.426 109.533 201.845 109.703 202.189C109.876 202.53 110.116 202.79 110.423 202.969C110.73 203.145 111.087 203.233 111.493 203.233C111.757 203.233 111.996 203.196 112.209 203.122C112.425 203.045 112.611 202.932 112.767 202.781C112.923 202.628 113.044 202.437 113.129 202.21L114.101 202.483C113.999 202.812 113.827 203.102 113.585 203.352C113.344 203.599 113.045 203.793 112.69 203.932C112.335 204.068 111.936 204.136 111.493 204.136ZM120.114 200.062V204H119.108V197.455H120.08V198.477H120.165C120.318 198.145 120.551 197.878 120.864 197.676C121.176 197.472 121.58 197.369 122.074 197.369C122.517 197.369 122.905 197.46 123.237 197.642C123.57 197.821 123.828 198.094 124.013 198.46C124.197 198.824 124.29 199.284 124.29 199.841V204H123.284V199.909C123.284 199.395 123.151 198.994 122.884 198.707C122.616 198.418 122.25 198.273 121.784 198.273C121.463 198.273 121.176 198.342 120.923 198.482C120.673 198.621 120.476 198.824 120.331 199.091C120.186 199.358 120.114 199.682 120.114 200.062ZM128.872 204.136C128.241 204.136 127.697 203.997 127.24 203.719C126.785 203.438 126.434 203.045 126.187 202.543C125.943 202.037 125.821 201.449 125.821 200.778C125.821 200.108 125.943 199.517 126.187 199.006C126.434 198.491 126.778 198.091 127.218 197.804C127.662 197.514 128.179 197.369 128.77 197.369C129.11 197.369 129.447 197.426 129.779 197.54C130.112 197.653 130.414 197.838 130.687 198.094C130.96 198.347 131.177 198.682 131.339 199.099C131.501 199.517 131.582 200.031 131.582 200.642V201.068H126.537V200.199H130.559C130.559 199.83 130.485 199.5 130.338 199.21C130.193 198.92 129.985 198.692 129.716 198.524C129.449 198.357 129.133 198.273 128.77 198.273C128.369 198.273 128.022 198.372 127.73 198.571C127.44 198.767 127.217 199.023 127.061 199.338C126.904 199.653 126.826 199.991 126.826 200.352V200.932C126.826 201.426 126.912 201.845 127.082 202.189C127.255 202.53 127.495 202.79 127.802 202.969C128.109 203.145 128.466 203.233 128.872 203.233C129.136 203.233 129.375 203.196 129.588 203.122C129.804 203.045 129.99 202.932 130.146 202.781C130.302 202.628 130.423 202.437 130.508 202.21L131.48 202.483C131.377 202.812 131.206 203.102 130.964 203.352C130.723 203.599 130.424 203.793 130.069 203.932C129.714 204.068 129.315 204.136 128.872 204.136ZM138.265 197.455L135.844 204H134.822L132.401 197.455H133.492L135.299 202.67H135.367L137.174 197.455H138.265ZM142.102 204.136C141.472 204.136 140.928 203.997 140.47 203.719C140.016 203.438 139.665 203.045 139.418 202.543C139.173 202.037 139.051 201.449 139.051 200.778C139.051 200.108 139.173 199.517 139.418 199.006C139.665 198.491 140.009 198.091 140.449 197.804C140.892 197.514 141.409 197.369 142 197.369C142.341 197.369 142.678 197.426 143.01 197.54C143.342 197.653 143.645 197.838 143.918 198.094C144.19 198.347 144.408 198.682 144.57 199.099C144.732 199.517 144.812 200.031 144.812 200.642V201.068H139.767V200.199H143.79C143.79 199.83 143.716 199.5 143.568 199.21C143.423 198.92 143.216 198.692 142.946 198.524C142.679 198.357 142.364 198.273 142 198.273C141.599 198.273 141.253 198.372 140.96 198.571C140.67 198.767 140.447 199.023 140.291 199.338C140.135 199.653 140.057 199.991 140.057 200.352V200.932C140.057 201.426 140.142 201.845 140.312 202.189C140.486 202.53 140.726 202.79 141.033 202.969C141.339 203.145 141.696 203.233 142.102 203.233C142.366 203.233 142.605 203.196 142.818 203.122C143.034 203.045 143.22 202.932 143.376 202.781C143.533 202.628 143.653 202.437 143.739 202.21L144.71 202.483C144.608 202.812 144.436 203.102 144.195 203.352C143.953 203.599 143.655 203.793 143.3 203.932C142.945 204.068 142.545 204.136 142.102 204.136ZM146.342 204V197.455H147.314V198.443H147.382C147.501 198.119 147.717 197.857 148.03 197.655C148.342 197.453 148.695 197.352 149.087 197.352C149.161 197.352 149.253 197.354 149.364 197.357C149.474 197.359 149.558 197.364 149.615 197.369V198.392C149.581 198.384 149.503 198.371 149.381 198.354C149.261 198.334 149.135 198.324 149.001 198.324C148.683 198.324 148.399 198.391 148.149 198.524C147.902 198.655 147.706 198.837 147.561 199.07C147.419 199.3 147.348 199.562 147.348 199.858V204H146.342ZM154.319 204V195.273H155.324V198.494H155.409C155.483 198.381 155.586 198.236 155.716 198.06C155.85 197.881 156.04 197.722 156.287 197.582C156.537 197.44 156.875 197.369 157.301 197.369C157.853 197.369 158.338 197.507 158.759 197.783C159.179 198.058 159.507 198.449 159.743 198.955C159.979 199.46 160.097 200.057 160.097 200.744C160.097 201.438 159.979 202.038 159.743 202.547C159.507 203.053 159.181 203.445 158.763 203.723C158.346 203.999 157.864 204.136 157.319 204.136C156.898 204.136 156.561 204.067 156.309 203.928C156.056 203.786 155.861 203.625 155.725 203.446C155.588 203.264 155.483 203.114 155.409 202.994H155.29V204H154.319ZM155.307 200.727C155.307 201.222 155.38 201.658 155.525 202.036C155.669 202.411 155.881 202.705 156.159 202.918C156.438 203.128 156.779 203.233 157.182 203.233C157.603 203.233 157.953 203.122 158.235 202.901C158.519 202.676 158.732 202.375 158.874 201.997C159.019 201.616 159.091 201.193 159.091 200.727C159.091 200.267 159.02 199.852 158.878 199.483C158.739 199.111 158.527 198.817 158.243 198.601C157.962 198.382 157.608 198.273 157.182 198.273C156.773 198.273 156.429 198.376 156.151 198.584C155.873 198.788 155.662 199.075 155.52 199.445C155.378 199.811 155.307 200.239 155.307 200.727ZM164.38 204.136C163.749 204.136 163.205 203.997 162.748 203.719C162.293 203.438 161.942 203.045 161.695 202.543C161.451 202.037 161.328 201.449 161.328 200.778C161.328 200.108 161.451 199.517 161.695 199.006C161.942 198.491 162.286 198.091 162.726 197.804C163.169 197.514 163.686 197.369 164.277 197.369C164.618 197.369 164.955 197.426 165.287 197.54C165.62 197.653 165.922 197.838 166.195 198.094C166.468 198.347 166.685 198.682 166.847 199.099C167.009 199.517 167.09 200.031 167.09 200.642V201.068H162.044V200.199H166.067C166.067 199.83 165.993 199.5 165.846 199.21C165.701 198.92 165.493 198.692 165.223 198.524C164.956 198.357 164.641 198.273 164.277 198.273C163.877 198.273 163.53 198.372 163.238 198.571C162.948 198.767 162.725 199.023 162.569 199.338C162.412 199.653 162.334 199.991 162.334 200.352V200.932C162.334 201.426 162.419 201.845 162.59 202.189C162.763 202.53 163.003 202.79 163.31 202.969C163.617 203.145 163.973 203.233 164.38 203.233C164.644 203.233 164.882 203.196 165.096 203.122C165.311 203.045 165.498 202.932 165.654 202.781C165.81 202.628 165.931 202.437 166.016 202.21L166.988 202.483C166.885 202.812 166.713 203.102 166.472 203.352C166.23 203.599 165.932 203.793 165.577 203.932C165.222 204.068 164.823 204.136 164.38 204.136ZM171.534 197.455V198.307H168.006V197.455H171.534ZM169.063 204V196.551C169.063 196.176 169.151 195.864 169.327 195.614C169.503 195.364 169.732 195.176 170.013 195.051C170.294 194.926 170.591 194.864 170.904 194.864C171.151 194.864 171.353 194.884 171.509 194.923C171.665 194.963 171.782 195 171.858 195.034L171.569 195.903C171.517 195.886 171.446 195.865 171.355 195.839C171.267 195.814 171.151 195.801 171.006 195.801C170.674 195.801 170.434 195.885 170.286 196.053C170.141 196.22 170.069 196.466 170.069 196.79V204H169.063ZM175.333 204.136C174.743 204.136 174.224 203.996 173.778 203.714C173.335 203.433 172.988 203.04 172.738 202.534C172.491 202.028 172.368 201.437 172.368 200.761C172.368 200.08 172.491 199.484 172.738 198.976C172.988 198.467 173.335 198.072 173.778 197.791C174.224 197.51 174.743 197.369 175.333 197.369C175.924 197.369 176.441 197.51 176.885 197.791C177.331 198.072 177.677 198.467 177.924 198.976C178.174 199.484 178.299 200.08 178.299 200.761C178.299 201.437 178.174 202.028 177.924 202.534C177.677 203.04 177.331 203.433 176.885 203.714C176.441 203.996 175.924 204.136 175.333 204.136ZM175.333 203.233C175.782 203.233 176.152 203.118 176.441 202.888C176.731 202.658 176.946 202.355 177.085 201.98C177.224 201.605 177.294 201.199 177.294 200.761C177.294 200.324 177.224 199.916 177.085 199.538C176.946 199.161 176.731 198.855 176.441 198.622C176.152 198.389 175.782 198.273 175.333 198.273C174.885 198.273 174.515 198.389 174.225 198.622C173.936 198.855 173.721 199.161 173.582 199.538C173.443 199.916 173.373 200.324 173.373 200.761C173.373 201.199 173.443 201.605 173.582 201.98C173.721 202.355 173.936 202.658 174.225 202.888C174.515 203.118 174.885 203.233 175.333 203.233ZM179.835 204V197.455H180.806V198.443H180.874C180.994 198.119 181.21 197.857 181.522 197.655C181.835 197.453 182.187 197.352 182.579 197.352C182.653 197.352 182.745 197.354 182.856 197.357C182.967 197.359 183.05 197.364 183.107 197.369V198.392C183.073 198.384 182.995 198.371 182.873 198.354C182.754 198.334 182.627 198.324 182.494 198.324C182.175 198.324 181.891 198.391 181.641 198.524C181.394 198.655 181.198 198.837 181.053 199.07C180.911 199.3 180.84 199.562 180.84 199.858V204H179.835ZM186.844 204.136C186.214 204.136 185.67 203.997 185.212 203.719C184.758 203.438 184.407 203.045 184.16 202.543C183.915 202.037 183.793 201.449 183.793 200.778C183.793 200.108 183.915 199.517 184.16 199.006C184.407 198.491 184.751 198.091 185.191 197.804C185.634 197.514 186.151 197.369 186.742 197.369C187.083 197.369 187.42 197.426 187.752 197.54C188.085 197.653 188.387 197.838 188.66 198.094C188.933 198.347 189.15 198.682 189.312 199.099C189.474 199.517 189.555 200.031 189.555 200.642V201.068H184.509V200.199H188.532C188.532 199.83 188.458 199.5 188.31 199.21C188.165 198.92 187.958 198.692 187.688 198.524C187.421 198.357 187.106 198.273 186.742 198.273C186.342 198.273 185.995 198.372 185.702 198.571C185.413 198.767 185.19 199.023 185.033 199.338C184.877 199.653 184.799 199.991 184.799 200.352V200.932C184.799 201.426 184.884 201.845 185.055 202.189C185.228 202.53 185.468 202.79 185.775 202.969C186.082 203.145 186.438 203.233 186.844 203.233C187.109 203.233 187.347 203.196 187.56 203.122C187.776 203.045 187.962 202.932 188.119 202.781C188.275 202.628 188.396 202.437 188.481 202.21L189.452 202.483C189.35 202.812 189.178 203.102 188.937 203.352C188.695 203.599 188.397 203.793 188.042 203.932C187.687 204.068 187.288 204.136 186.844 204.136ZM191.817 204.068C191.607 204.068 191.427 203.993 191.276 203.842C191.126 203.692 191.05 203.511 191.05 203.301C191.05 203.091 191.126 202.911 191.276 202.76C191.427 202.609 191.607 202.534 191.817 202.534C192.028 202.534 192.208 202.609 192.359 202.76C192.509 202.911 192.585 203.091 192.585 203.301C192.585 203.44 192.549 203.568 192.478 203.685C192.41 203.801 192.317 203.895 192.201 203.966C192.087 204.034 191.96 204.068 191.817 204.068Z" fill="#434345"/>
</svg>
